<?xml version="1.0" standalone="no"?>
<!DOCTYPE svg PUBLIC "-//W3C//DTD SVG 20010904//EN"
 "http://www.w3.org/TR/2001/REC-SVG-20010904/DTD/svg10.dtd">
<svg version="1.0" xmlns="http://www.w3.org/2000/svg"
 width="276.000000pt" height="276.000000pt" viewBox="0 0 276.000000 276.000000"
 preserveAspectRatio="xMidYMid meet">
<metadata>
Created by potrace 1.11, written by Peter Selinger 2001-2013
</metadata>
<g transform="translate(0.000000,276.000000) scale(0.100000,-0.100000)"
fill="#000000" stroke="none">
<path d="M2050 2100 c-65 -14 -160 -63 -199 -104 -33 -34 -34 -35 -64 -19 -21
10 -49 14 -91 11 -118 -8 -234 -91 -327 -233 l-44 -66 -12 74 c-12 80 -23 108
-57 145 -71 79 -195 67 -312 -29 -23 -19 -75 -71 -115 -117 l-73 -82 -23 62
c-40 111 -115 148 -205 102 -36 -19 -44 -54 -24 -104 19 -49 13 -84 -39 -223
-49 -132 -61 -176 -84 -313 -48 -281 -17 -411 102 -431 76 -12 104 28 117 173
25 262 94 475 210 644 48 69 146 166 183 179 48 18 97 -15 97 -66 0 -10 -27
-103 -60 -206 -134 -424 -147 -606 -48 -667 50 -30 104 -27 138 10 31 33 34
44 50 170 38 295 183 628 339 773 54 51 74 56 110 31 21 -15 23 -22 18 -63 -4
-25 -42 -166 -86 -313 -91 -303 -108 -395 -91 -500 33 -215 177 -311 416 -279
218 30 376 127 441 268 68 149 26 294 -163 558 -48 66 -99 147 -115 179 -83
173 -53 316 65 316 73 0 87 -21 85 -127 -1 -79 0 -88 21 -105 35 -28 111 -24
148 7 61 51 60 178 -1 259 -55 71 -193 110 -307 86z m-113 -861 c4 -24 -1 -32
-38 -59 l-44 -32 -5 58 c-9 98 -54 75 -55 -27 0 -56 -2 -61 -32 -80 l-33 -21
0 29 c0 54 21 147 57 256 l35 109 55 -102 c30 -57 57 -115 60 -131z m79 -145
c17 -90 -20 -165 -100 -203 -55 -25 -121 -28 -130 -5 -8 20 14 71 50 113 28
33 151 131 166 131 4 0 10 -16 14 -36z"/>
<path d="M1817 1347 c-8 -21 8 -39 29 -35 27 5 25 42 -2 46 -12 2 -24 -3 -27
-11z"/>
</g>
</svg>
